<svg width="150" height="150" viewBox="0 0 150 150" fill="none" xmlns="http://www.w3.org/2000/svg">
<g clip-path="url(#clip0_333_46)">
<path d="M125.672 79.9408C123.725 70.1266 118.69 61.1927 111.302 54.4452C103.914 47.6978 94.5615 43.4906 84.6116 42.439C74.6617 41.3873 64.6362 43.5463 56.0011 48.6002C47.3661 53.6542 40.5742 61.338 36.6187 70.5283C32.1828 70.0172 27.6893 70.417 23.4132 71.703C19.1372 72.989 15.1687 75.1343 11.7505 78.0074C8.33243 80.8805 5.5367 84.4211 3.53452 88.4123C1.53234 92.4035 0.365841 96.7613 0.106442 101.219C-0.152957 105.677 0.500205 110.14 2.02594 114.337C3.55167 118.533 5.91786 122.374 8.97964 125.625C12.0414 128.875 15.7344 131.466 19.8324 133.239C23.9304 135.012 28.3472 135.931 32.8124 135.938H121.875C129.01 135.946 135.882 133.242 141.098 128.373C146.314 123.504 149.485 116.834 149.968 109.715C150.45 102.596 148.209 95.5598 143.698 90.0314C139.187 84.503 132.743 80.8959 125.672 79.9408ZM79.6874 51.5626C88.912 51.5607 97.8137 54.9589 104.69 61.1074C111.567 67.256 115.936 75.7234 116.962 84.8908C117.09 86.0426 117.639 87.1063 118.505 87.8768C119.371 88.6472 120.491 89.0697 121.65 89.0626H121.875C126.848 89.0639 131.616 91.0405 135.132 94.5577C138.647 98.0749 140.621 102.845 140.62 107.817C140.619 112.79 138.642 117.559 135.125 121.074C131.608 124.59 126.838 126.564 121.866 126.563H32.8124C29.4944 126.561 26.2145 125.855 23.1897 124.491C20.165 123.127 17.4643 121.136 15.2663 118.651C13.0684 116.165 11.4233 113.241 10.4398 110.072C9.45632 106.903 9.15692 103.561 9.56139 100.268C9.96587 96.9747 11.065 93.8048 12.7861 90.9681C14.5072 88.1313 16.811 85.6922 19.5451 83.8123C22.2792 81.9324 25.3813 80.6545 28.6463 80.063C31.9112 79.4715 35.2645 79.5801 38.4843 80.3814C39.633 80.6679 40.8476 80.5091 41.8841 79.937C42.9205 79.3648 43.7021 78.4217 44.0718 77.297C46.547 69.8065 51.3213 63.2873 57.7157 58.667C64.11 54.0467 71.7986 51.5607 79.6874 51.5626Z" fill="white"/>
</g>
<defs>
<clipPath id="clip0_333_46">
<rect width="150" height="150" fill="white"/>
</clipPath>
</defs>
</svg>
