<svg width="151" height="94" viewBox="0 0 151 94" fill="none" xmlns="http://www.w3.org/2000/svg">
<path d="M79.6875 9.35244C71.797 9.34854 64.1064 11.8337 57.7101 16.4541C51.3139 21.0745 46.5381 27.5948 44.0625 35.0868C43.8878 35.6926 43.5927 36.257 43.1948 36.7461C42.7969 37.2352 42.3045 37.639 41.7469 37.9333C41.1893 38.2276 40.5781 38.4065 39.9498 38.4591C39.3215 38.5117 38.6891 38.4371 38.0903 38.2396C37.4915 38.0421 36.9388 37.7259 36.4651 37.3098C35.9914 36.8937 35.6065 36.3863 35.3334 35.818C35.0604 35.2497 34.9048 34.6322 34.8759 34.0023C34.8471 33.3725 34.9456 32.7433 35.1656 32.1524C38.4197 22.3256 44.8339 13.8516 53.4082 8.05175C61.9824 2.25187 72.2348 -0.547942 82.5668 0.0888461C92.8988 0.725634 102.73 4.76323 110.527 11.5721C118.324 18.381 123.649 27.5785 125.672 37.7306C132.743 38.6857 139.187 42.2928 143.698 47.8212C148.209 53.3496 150.45 60.3861 149.968 67.5051C149.485 74.6242 146.314 81.2936 141.098 86.1625C135.882 91.0313 129.01 93.7356 121.875 93.7274H4.6875C3.4443 93.7274 2.25201 93.2336 1.37294 92.3545C0.49386 91.4754 0 90.2831 0 89.0399C0 87.7967 0.49386 86.6045 1.37294 85.7254C2.25201 84.8463 3.4443 84.3524 4.6875 84.3524H121.875C126.848 84.3537 131.617 82.3794 135.135 78.864C138.652 75.3486 140.628 70.5799 140.63 65.6071C140.631 60.6343 138.657 55.8647 135.141 52.3475C131.626 48.8303 126.857 46.8537 121.884 46.8524H121.641C120.482 46.8595 119.361 46.437 118.496 45.6666C117.63 44.8962 117.081 43.8324 116.953 42.6806C115.927 33.5148 111.559 25.0487 104.685 18.9004C97.8099 12.7521 88.9105 9.35284 79.6875 9.35244ZM0 51.5399C0 50.2967 0.49386 49.1045 1.37294 48.2254C2.25201 47.3463 3.4443 46.8524 4.6875 46.8524H70.3125C71.5557 46.8524 72.748 47.3463 73.6271 48.2254C74.5061 49.1045 75 50.2967 75 51.5399C75 52.7831 74.5061 53.9754 73.6271 54.8545C72.748 55.7336 71.5557 56.2274 70.3125 56.2274H4.6875C3.4443 56.2274 2.25201 55.7336 1.37294 54.8545C0.49386 53.9754 0 52.7831 0 51.5399ZM0 70.2899C0 69.0467 0.49386 67.8545 1.37294 66.9754C2.25201 66.0963 3.4443 65.6024 4.6875 65.6024H89.0625C90.3057 65.6024 91.498 66.0963 92.3771 66.9754C93.2561 67.8545 93.75 69.0467 93.75 70.2899C93.75 71.5331 93.2561 72.7254 92.3771 73.6045C91.498 74.4836 90.3057 74.9774 89.0625 74.9774H4.6875C3.4443 74.9774 2.25201 74.4836 1.37294 73.6045C0.49386 72.7254 0 71.5331 0 70.2899Z" fill="#D9D9D9"/>
</svg>
