<svg width="150" height="150" viewBox="0 0 150 150" fill="none" xmlns="http://www.w3.org/2000/svg">
<g clip-path="url(#clip0_333_52)">
<path d="M39.1499 103.425C40.3113 103.863 41.2517 104.743 41.7649 105.873C42.2781 107.003 42.3221 108.291 41.8874 109.453L27.8249 146.953C27.6264 147.552 27.3093 148.104 26.8925 148.577C26.4757 149.049 25.9678 149.433 25.3992 149.705C24.8306 149.978 24.213 150.132 23.5832 150.16C22.9535 150.188 22.3246 150.089 21.7342 149.868C21.1437 149.647 20.6039 149.309 20.1469 148.875C19.69 148.441 19.3253 147.919 19.0747 147.341C18.8241 146.762 18.6928 146.139 18.6885 145.509C18.6843 144.878 18.8072 144.254 19.0499 143.672L33.1124 106.172C33.3282 105.595 33.6556 105.066 34.0759 104.616C34.4962 104.165 35.0011 103.802 35.5618 103.547C36.1226 103.292 36.7281 103.15 37.3437 103.129C37.9594 103.108 38.5732 103.209 39.1499 103.425ZM67.2749 103.425C68.4363 103.863 69.3767 104.743 69.8899 105.873C70.4031 107.003 70.4471 108.291 70.0124 109.453L55.9499 146.953C55.7514 147.552 55.4343 148.104 55.0175 148.577C54.6007 149.049 54.0928 149.433 53.5242 149.705C52.9556 149.978 52.338 150.132 51.7082 150.16C51.0785 150.188 50.4496 150.089 49.8591 149.868C49.2687 149.647 48.7289 149.309 48.2719 148.875C47.815 148.441 47.4503 147.919 47.1997 147.341C46.9491 146.762 46.8178 146.139 46.8135 145.509C46.8093 144.878 46.9322 144.254 47.1749 143.672L61.2374 106.172C61.4532 105.595 61.7806 105.066 62.2009 104.616C62.6212 104.165 63.1261 103.802 63.6868 103.547C64.2476 103.292 64.8531 103.15 65.4687 103.129C66.0844 103.108 66.6982 103.209 67.2749 103.425ZM95.3999 103.425C96.5613 103.863 97.5017 104.743 98.0149 105.873C98.5281 107.003 98.5721 108.291 98.1374 109.453L84.0749 146.953C83.8764 147.552 83.5593 148.104 83.1425 148.577C82.7257 149.049 82.2178 149.433 81.6492 149.705C81.0806 149.978 80.4629 150.132 79.8332 150.16C79.2035 150.188 78.5746 150.089 77.9841 149.868C77.3937 149.647 76.8539 149.309 76.3969 148.875C75.94 148.441 75.5753 147.919 75.3247 147.341C75.0741 146.762 74.9428 146.139 74.9385 145.509C74.9343 144.878 75.0572 144.254 75.2999 143.672L89.3624 106.172C89.5782 105.595 89.9056 105.066 90.3259 104.616C90.7461 104.165 91.2511 103.802 91.8118 103.547C92.3725 103.292 92.9781 103.15 93.5937 103.129C94.2094 103.108 94.8232 103.209 95.3999 103.425ZM123.525 103.425C124.686 103.863 125.627 104.743 126.14 105.873C126.653 107.003 126.697 108.291 126.262 109.453L112.2 146.953C111.733 148.073 110.85 148.967 109.737 149.449C108.625 149.931 107.368 149.963 106.232 149.539C105.096 149.114 104.169 148.265 103.646 147.171C103.122 146.077 103.043 144.823 103.425 143.672L117.487 106.172C117.703 105.595 118.031 105.066 118.451 104.616C118.871 104.165 119.376 103.802 119.937 103.547C120.498 103.292 121.103 103.15 121.719 103.129C122.334 103.108 122.948 103.209 123.525 103.425ZM125.672 37.7533C123.725 27.9391 118.69 19.0052 111.302 12.2577C103.914 5.51026 94.5615 1.30312 84.6116 0.251461C74.6617 -0.8002 64.6362 1.35878 56.0011 6.41272C47.3661 11.4667 40.5742 19.1505 36.6187 28.3408C32.1828 27.8297 27.6893 28.2295 23.4132 29.5155C19.1372 30.8015 15.1687 32.9468 11.7505 35.8199C8.33243 38.693 5.5367 42.2336 3.53452 46.2248C1.53234 50.216 0.365841 54.5738 0.106442 59.0315C-0.152957 63.4892 0.500205 67.9529 2.02594 72.1494C3.55167 76.3459 5.91786 80.1868 8.97964 83.437C12.0414 86.6872 15.7344 89.2783 19.8324 91.0516C23.9304 92.8249 28.3472 93.7432 32.8124 93.7501H121.875C129.01 93.7583 135.882 91.054 141.098 86.1852C146.314 81.3163 149.485 74.6469 149.968 67.5278C150.45 60.4087 148.209 53.3723 143.698 47.8439C139.187 42.3155 132.743 38.7084 125.672 37.7533ZM79.6874 9.37513C88.912 9.37322 97.8137 12.7714 104.69 18.9199C111.567 25.0685 115.936 33.5359 116.962 42.7033C117.09 43.8551 117.639 44.9188 118.505 45.6893C119.371 46.4597 120.491 46.8822 121.65 46.8751H121.875C126.848 46.8751 131.617 48.8506 135.133 52.3669C138.649 55.8832 140.625 60.6523 140.625 65.6251C140.625 70.5979 138.649 75.3671 135.133 78.8834C131.617 82.3997 126.848 84.3751 121.875 84.3751H32.8124C29.4944 84.3735 26.2145 83.6673 23.1897 82.3034C20.165 80.9394 17.4643 78.9488 15.2663 76.4631C13.0684 73.9775 11.4233 71.0535 10.4398 67.8845C9.45632 64.7155 9.15692 61.3739 9.56139 58.0806C9.96587 54.7872 11.065 51.6173 12.7861 48.7806C14.5072 45.9438 16.811 43.5047 19.5451 41.6248C22.2792 39.7449 25.3813 38.467 28.6463 37.8755C31.9112 37.284 35.2645 37.3926 38.4843 38.1939C39.633 38.4804 40.8476 38.3216 41.8841 37.7495C42.9205 37.1773 43.7021 36.2342 44.0718 35.1095C46.547 27.619 51.3213 21.0998 57.7157 16.4795C64.11 11.8592 71.7986 9.3732 79.6874 9.37513Z" fill="white"/>
</g>
<defs>
<clipPath id="clip0_333_52">
<rect width="150" height="150" fill="white"/>
</clipPath>
</defs>
</svg>
