<svg width="150" height="150" viewBox="0 0 150 150" fill="none" xmlns="http://www.w3.org/2000/svg">
<g clip-path="url(#clip0_333_43)">
<path d="M65.625 74.9999C69.9778 74.9994 74.2871 75.8649 78.3021 77.546C82.3171 79.2272 85.9574 81.6903 89.0112 84.7921C92.0649 87.8938 94.471 91.5721 96.0894 95.6128C97.7077 99.6536 98.5059 103.976 98.4375 108.328C98.4265 109.049 98.5818 109.762 98.8913 110.413C99.2009 111.064 99.6563 111.634 100.222 112.081C100.788 112.527 101.449 112.836 102.154 112.986C102.859 113.135 103.589 113.119 104.288 112.941C106.366 112.408 108.539 112.357 110.641 112.792C112.742 113.227 114.716 114.136 116.413 115.45C118.109 116.764 119.483 118.448 120.43 120.374C121.376 122.3 121.871 124.417 121.875 126.562C121.875 130.292 120.393 133.869 117.756 136.506C115.119 139.143 111.542 140.625 107.813 140.625H28.125C25.6322 140.611 23.1673 140.1 20.8743 139.122C18.5814 138.144 16.5065 136.718 14.771 134.929C13.0355 133.139 11.6743 131.022 10.767 128.7C9.85967 126.378 9.42445 123.898 9.48678 121.406C9.54911 118.914 10.1078 116.46 11.13 114.186C12.1523 111.913 13.6177 109.866 15.4404 108.165C17.2632 106.465 19.4068 105.145 21.7457 104.282C24.0847 103.42 26.5721 103.033 29.0625 103.144C30.1427 103.199 31.2089 102.88 32.0804 102.239C32.9518 101.598 33.5748 100.676 33.8438 99.6281C35.6593 92.5794 39.767 86.3345 45.5204 81.876C51.2738 77.4175 58.3463 74.9986 65.625 74.9999ZM107.559 103.125C106.505 93.62 102.252 84.7554 95.4981 77.9846C88.7444 71.2138 79.8906 66.9385 70.3883 65.8597C60.8861 64.7809 51.2993 66.9626 43.1996 72.047C35.0999 77.1315 28.9681 84.8171 25.8094 93.8437C18.5713 94.4361 11.843 97.8054 7.03281 103.246C2.22261 108.687 -0.296545 115.778 0.00266302 123.034C0.301871 130.29 3.39625 137.149 8.63806 142.175C13.8799 147.202 20.8628 150.005 28.125 150H107.813C114.029 150 119.99 147.531 124.385 143.135C128.781 138.74 131.25 132.778 131.25 126.562C131.25 120.346 128.781 114.385 124.385 109.99C119.99 105.594 114.029 103.125 107.813 103.125H107.559Z" fill="white"/>
<path d="M98.4375 14.0625C98.4375 12.8193 97.9436 11.627 97.0645 10.7479C96.1855 9.86886 94.9932 9.375 93.75 9.375C92.5068 9.375 91.3145 9.86886 90.4354 10.7479C89.5563 11.627 89.0625 12.8193 89.0625 14.0625V23.4375C89.0625 24.6807 89.5563 25.873 90.4354 26.7521C91.3145 27.6311 92.5068 28.125 93.75 28.125C94.9932 28.125 96.1855 27.6311 97.0645 26.7521C97.9436 25.873 98.4375 24.6807 98.4375 23.4375V14.0625ZM133.528 32.475C133.976 32.0426 134.333 31.5254 134.579 30.9535C134.824 30.3816 134.954 29.7665 134.959 29.1441C134.964 28.5217 134.846 27.9044 134.61 27.3283C134.374 26.7523 134.026 26.2289 133.586 25.7888C133.146 25.3487 132.623 25.0006 132.047 24.7649C131.471 24.5292 130.853 24.4106 130.231 24.416C129.608 24.4214 128.993 24.5507 128.422 24.7964C127.85 25.0421 127.332 25.3992 126.9 25.8469L120.262 32.475C119.382 33.3552 118.888 34.549 118.888 35.7938C118.888 37.0385 119.382 38.2323 120.262 39.1125C121.143 39.9927 122.336 40.4872 123.581 40.4872C124.826 40.4872 126.02 39.9927 126.9 39.1125L133.528 32.475ZM60.6 25.8469C59.7159 24.993 58.5318 24.5205 57.3028 24.5312C56.0737 24.5419 54.898 25.0349 54.0289 25.904C53.1598 26.7731 52.6669 27.9488 52.6562 29.1778C52.6455 30.4069 53.118 31.5909 53.9718 32.475L60.6 39.1125C61.0358 39.5483 61.5532 39.894 62.1226 40.1299C62.6921 40.3658 63.3024 40.4872 63.9187 40.4872C64.5351 40.4872 65.1454 40.3658 65.7148 40.1299C66.2842 39.894 66.8016 39.5483 67.2375 39.1125C67.6733 38.6767 68.019 38.1593 68.2549 37.5898C68.4907 37.0204 68.6121 36.4101 68.6121 35.7938C68.6121 35.1774 68.4907 34.5671 68.2549 33.9977C68.019 33.4282 67.6733 32.9108 67.2375 32.475L60.6 25.8469ZM76.8562 57.4781C78.0214 55.0635 79.6909 52.9268 81.752 51.2122C83.8132 49.4977 86.218 48.2451 88.8044 47.5389C91.3908 46.8327 94.0986 46.6895 96.7451 47.1187C99.3915 47.548 101.915 48.5399 104.146 50.0274C106.376 51.5149 108.262 53.4634 109.675 55.7416C111.089 58.0198 111.997 60.5746 112.34 63.2338C112.682 65.8929 112.45 68.5945 111.659 71.1563C110.868 73.7181 109.538 76.0806 107.756 78.0844C109.631 80.7281 111.244 83.5344 112.594 86.5031C115.771 83.6325 118.251 80.0743 119.844 76.0999C121.437 72.1254 122.102 67.8397 121.788 63.5693C121.473 59.299 120.188 55.1568 118.03 51.4586C115.871 47.7604 112.897 44.6038 109.334 42.2295C105.77 39.8552 101.712 38.3258 97.468 37.758C93.2239 37.1902 88.9062 37.5989 84.844 38.9531C80.7819 40.3072 77.0826 42.571 74.0281 45.5718C70.9736 48.5726 68.6446 52.2312 67.2187 56.2687C70.525 56.375 73.7375 56.7781 76.8562 57.4781ZM118.894 95.6719C124.519 97.6875 129.441 101.203 133.162 105.722C133.673 105.309 134.091 104.793 134.389 104.207C134.687 103.622 134.859 102.981 134.893 102.325C134.928 101.669 134.824 101.013 134.589 100.4C134.354 99.7871 133.992 99.2302 133.528 98.7656L126.9 92.1375C126.232 91.4653 125.375 91.0114 124.444 90.8358C123.512 90.6603 122.55 90.7712 121.683 91.154C120.815 91.5368 120.085 92.1735 119.587 92.98C119.089 93.7866 118.847 94.7252 118.894 95.6719ZM135.937 60.9375C134.694 60.9375 133.502 61.4314 132.623 62.3104C131.744 63.1895 131.25 64.3818 131.25 65.625C131.25 66.8682 131.744 68.0605 132.623 68.9396C133.502 69.8186 134.694 70.3125 135.937 70.3125H145.312C146.556 70.3125 147.748 69.8186 148.627 68.9396C149.506 68.0605 150 66.8682 150 65.625C150 64.3818 149.506 63.1895 148.627 62.3104C147.748 61.4314 146.556 60.9375 145.312 60.9375H135.937Z" fill="white"/>
</g>
<defs>
<clipPath id="clip0_333_43">
<rect width="150" height="150" fill="white"/>
</clipPath>
</defs>
</svg>
