<svg width="150" height="150" viewBox="0 0 150 150" fill="none" xmlns="http://www.w3.org/2000/svg">
<g clip-path="url(#clip0_333_54)">
<path d="M38.9812 112.735C39.5656 112.929 40.1058 113.237 40.571 113.641C41.0362 114.045 41.4173 114.537 41.6924 115.088C41.9676 115.639 42.1314 116.239 42.1745 116.853C42.2176 117.468 42.1392 118.085 41.9437 118.669L37.2562 132.731C36.8294 133.866 35.9796 134.792 34.8851 135.313C33.7906 135.835 32.5366 135.912 31.3864 135.528C30.2362 135.145 29.2793 134.331 28.7166 133.257C28.1539 132.183 28.0292 130.933 28.3687 129.769L33.0562 115.706C33.4479 114.527 34.2922 113.551 35.4033 112.993C36.5144 112.436 37.8014 112.343 38.9812 112.735ZM67.1062 112.735C67.6906 112.929 68.2308 113.237 68.696 113.641C69.1612 114.045 69.5423 114.537 69.8174 115.088C70.0926 115.639 70.2564 116.239 70.2995 116.853C70.3426 117.468 70.2642 118.085 70.0687 118.669L60.6937 146.794C60.2669 147.929 59.4171 148.854 58.3226 149.376C57.2281 149.897 55.9741 149.974 54.8239 149.591C53.6737 149.207 52.7168 148.393 52.1541 147.319C51.5914 146.245 51.4667 144.995 51.8062 143.831L61.1812 115.706C61.5729 114.527 62.4171 113.551 63.5283 112.993C64.6394 112.436 65.9264 112.343 67.1062 112.735ZM95.2312 112.735C95.8156 112.929 96.3558 113.237 96.821 113.641C97.2862 114.045 97.6673 114.537 97.9424 115.088C98.2176 115.639 98.3814 116.239 98.4245 116.853C98.4676 117.468 98.3892 118.085 98.1937 118.669L93.5062 132.731C93.0794 133.866 92.2296 134.792 91.1351 135.313C90.0406 135.835 88.7866 135.912 87.6364 135.528C86.4862 135.145 85.5293 134.331 84.9666 133.257C84.4039 132.183 84.2792 130.933 84.6187 129.769L89.3062 115.706C89.6979 114.527 90.5421 113.551 91.6533 112.993C92.7644 112.436 94.0514 112.343 95.2312 112.735ZM123.356 112.735C123.941 112.929 124.481 113.237 124.946 113.641C125.411 114.045 125.792 114.537 126.067 115.088C126.343 115.639 126.506 116.239 126.549 116.853C126.593 117.468 126.514 118.085 126.319 118.669L116.944 146.794C116.767 147.399 116.47 147.963 116.071 148.451C115.671 148.939 115.178 149.341 114.619 149.633C114.061 149.926 113.449 150.103 112.82 150.154C112.192 150.204 111.56 150.128 110.961 149.928C110.363 149.729 109.811 149.411 109.339 148.993C108.867 148.576 108.483 148.067 108.212 147.498C107.941 146.929 107.787 146.31 107.76 145.68C107.734 145.05 107.834 144.422 108.056 143.831L117.431 115.706C117.823 114.527 118.667 113.551 119.778 112.993C120.889 112.436 122.176 112.343 123.356 112.735ZM125.672 47.1283C123.725 37.3141 118.69 28.3802 111.302 21.6327C103.914 14.8853 94.5615 10.6781 84.6116 9.62646C74.6617 8.5748 64.6362 10.7338 56.0011 15.7877C47.3661 20.8417 40.5742 28.5255 36.6187 37.7158C32.1828 37.2047 27.6893 37.6045 23.4132 38.8905C19.1372 40.1765 15.1687 42.3218 11.7505 45.1949C8.33243 48.068 5.5367 51.6086 3.53452 55.5998C1.53234 59.591 0.365841 63.9488 0.106442 68.4065C-0.152957 72.8642 0.500205 77.3279 2.02594 81.5244C3.55167 85.7209 5.91786 89.5618 8.97964 92.812C12.0414 96.0622 15.7344 98.6533 19.8324 100.427C23.9304 102.2 28.3472 103.118 32.8124 103.125H121.875C129.01 103.133 135.882 100.429 141.098 95.5602C146.314 90.6913 149.485 84.0219 149.968 76.9028C150.45 69.7837 148.209 62.7473 143.698 57.2189C139.187 51.6905 132.743 48.0834 125.672 47.1283ZM79.6874 18.7501C88.912 18.7482 97.8137 22.1464 104.69 28.2949C111.567 34.4435 115.936 42.9109 116.962 52.0783C117.09 53.2301 117.639 54.2938 118.505 55.0643C119.371 55.8347 120.491 56.2572 121.65 56.2501H121.875C126.848 56.2501 131.617 58.2256 135.133 61.7419C138.649 65.2582 140.625 70.0273 140.625 75.0001C140.625 79.9729 138.649 84.7421 135.133 88.2584C131.617 91.7747 126.848 93.7501 121.875 93.7501H32.8124C29.4944 93.7485 26.2145 93.0423 23.1897 91.6784C20.165 90.3144 17.4643 88.3238 15.2663 85.8381C13.0684 83.3525 11.4233 80.4285 10.4398 77.2595C9.45632 74.0905 9.15692 70.7489 9.56139 67.4556C9.96587 64.1622 11.065 60.9923 12.7861 58.1556C14.5072 55.3188 16.811 52.8797 19.5451 50.9998C22.2792 49.1199 25.3813 47.842 28.6463 47.2505C31.9112 46.659 35.2645 46.7676 38.4843 47.5689C39.633 47.8554 40.8476 47.6966 41.8841 47.1245C42.9205 46.5523 43.7021 45.6092 44.0718 44.4845C46.547 36.994 51.3213 30.4748 57.7157 25.8545C64.11 21.2342 71.7986 18.7482 79.6874 18.7501Z" fill="white"/>
</g>
<defs>
<clipPath id="clip0_333_54">
<rect width="150" height="150" fill="white"/>
</clipPath>
</defs>
</svg>
