<svg width="150" height="150" viewBox="0 0 150 150" fill="none" xmlns="http://www.w3.org/2000/svg">
<g clip-path="url(#clip0_333_50)">
<path d="M125.672 40.097C123.725 30.2829 118.69 21.349 111.302 14.6015C103.914 7.85401 94.5615 3.64687 84.6116 2.59521C74.6617 1.54355 64.6362 3.70253 56.0011 8.75647C47.3661 13.8104 40.5742 21.4943 36.6187 30.6845C32.1828 30.1735 27.6893 30.5732 23.4132 31.8593C19.1372 33.1453 15.1687 35.2905 11.7505 38.1637C8.33243 41.0368 5.5367 44.5773 3.53452 48.5685C1.53234 52.5597 0.365841 56.9176 0.106442 61.3752C-0.152957 65.8329 0.500205 70.2967 2.02594 74.4932C3.55167 78.6896 5.91786 82.5306 8.97964 85.7808C12.0414 89.031 15.7344 91.622 19.8324 93.3954C23.9304 95.1687 28.3472 96.0869 32.8124 96.0939H121.875C129.01 96.102 135.882 93.3978 141.098 88.5289C146.314 83.6601 149.485 76.9906 149.968 69.8715C150.45 62.7525 148.209 55.7161 143.698 50.1877C139.187 44.6592 132.743 41.0521 125.672 40.097ZM79.6874 11.7189C88.912 11.717 97.8137 15.1152 104.69 21.2637C111.567 27.4122 115.936 35.8797 116.962 45.047C117.09 46.1988 117.639 47.2626 118.505 48.033C119.371 48.8034 120.491 49.2259 121.65 49.2189H121.875C126.848 49.2201 131.616 51.1968 135.132 54.7139C138.647 58.2311 140.621 63.0008 140.62 67.9736C140.619 72.9464 138.642 77.715 135.125 81.2304C131.608 84.7459 126.838 86.7201 121.866 86.7189H32.8124C29.4944 86.7172 26.2145 86.0111 23.1897 84.6471C20.165 83.2832 17.4643 81.2926 15.2663 78.8069C13.0684 76.3212 11.4233 73.3972 10.4398 70.2282C9.45632 67.0593 9.15692 63.7176 9.56139 60.4243C9.96587 57.131 11.065 53.9611 12.7861 51.1243C14.5072 48.2875 16.811 45.8485 19.5451 43.9686C22.2792 42.0887 25.3813 40.8107 28.6463 40.2192C31.9112 39.6278 35.2645 39.7363 38.4843 40.5376C39.633 40.8241 40.8476 40.6654 41.8841 40.0932C42.9205 39.5211 43.7021 38.5779 44.0718 37.4533C46.547 29.9627 51.3213 23.4435 57.7157 18.8233C64.11 14.203 71.7986 11.717 79.6874 11.7189ZM24.6093 107.813C25.2309 107.813 25.8271 108.06 26.2666 108.499C26.7061 108.939 26.9531 109.535 26.9531 110.156V115.5L31.6499 112.81C32.1883 112.519 32.8192 112.45 33.4077 112.618C33.9962 112.786 34.4956 113.177 34.7992 113.709C35.1029 114.24 35.1866 114.869 35.0326 115.461C34.8786 116.054 34.499 116.562 33.9749 116.878L29.3343 119.531L33.9749 122.185C34.499 122.501 34.8786 123.009 35.0326 123.601C35.1866 124.194 35.1029 124.823 34.7992 125.354C34.4956 125.886 33.9962 126.277 33.4077 126.445C32.8192 126.613 32.1883 126.544 31.6499 126.253L26.9531 123.572V128.906C26.9531 129.528 26.7061 130.124 26.2666 130.564C25.8271 131.003 25.2309 131.25 24.6093 131.25C23.9877 131.25 23.3916 131.003 22.952 130.564C22.5125 130.124 22.2656 129.528 22.2656 128.906V123.563L17.5687 126.253C17.0303 126.544 16.3994 126.613 15.811 126.445C15.2225 126.277 14.723 125.886 14.4194 125.354C14.1158 124.823 14.032 124.194 14.186 123.601C14.3401 123.009 14.7197 122.501 15.2437 122.185L19.8843 119.531L15.2437 116.878C14.7197 116.562 14.3401 116.054 14.186 115.461C14.032 114.869 14.1158 114.24 14.4194 113.709C14.723 113.177 15.2225 112.786 15.811 112.618C16.3994 112.45 17.0303 112.519 17.5687 112.81L22.2656 115.491V110.156C22.2656 109.535 22.5125 108.939 22.952 108.499C23.3916 108.06 23.9877 107.813 24.6093 107.813ZM50.3906 126.563C51.0122 126.563 51.6083 126.81 52.0479 127.249C52.4874 127.689 52.7343 128.285 52.7343 128.906V134.25L57.4312 131.56C57.9696 131.269 58.6004 131.2 59.1889 131.368C59.7774 131.536 60.2768 131.927 60.5805 132.459C60.8841 132.99 60.9679 133.619 60.8138 134.211C60.6598 134.804 60.2802 135.312 59.7562 135.628L55.1156 138.281L59.7562 140.935C60.2802 141.251 60.6598 141.759 60.8138 142.351C60.9679 142.944 60.8841 143.573 60.5805 144.104C60.2768 144.636 59.7774 145.027 59.1889 145.195C58.6004 145.363 57.9696 145.294 57.4312 145.003L52.7343 142.322V147.656C52.7343 148.278 52.4874 148.874 52.0479 149.314C51.6083 149.753 51.0122 150 50.3906 150C49.769 150 49.1728 149.753 48.7333 149.314C48.2937 148.874 48.0468 148.278 48.0468 147.656V142.313L43.3499 145.003C42.8115 145.294 42.1807 145.363 41.5922 145.195C41.0037 145.027 40.5043 144.636 40.2007 144.104C39.897 143.573 39.8133 142.944 39.9673 142.351C40.1213 141.759 40.5009 141.251 41.0249 140.935L45.6656 138.281L41.0249 135.628C40.5009 135.312 40.1213 134.804 39.9673 134.211C39.8133 133.619 39.897 132.99 40.2007 132.459C40.5043 131.927 41.0037 131.536 41.5922 131.368C42.1807 131.2 42.8115 131.269 43.3499 131.56L48.0468 134.241V128.906C48.0468 128.285 48.2937 127.689 48.7333 127.249C49.1728 126.81 49.769 126.563 50.3906 126.563ZM101.953 126.563C102.575 126.563 103.171 126.81 103.61 127.249C104.05 127.689 104.297 128.285 104.297 128.906V134.25L108.994 131.56C109.532 131.269 110.163 131.2 110.751 131.368C111.34 131.536 111.839 131.927 112.143 132.459C112.447 132.99 112.53 133.619 112.376 134.211C112.222 134.804 111.843 135.312 111.319 135.628L106.678 138.281L111.319 140.935C111.843 141.251 112.222 141.759 112.376 142.351C112.53 142.944 112.447 143.573 112.143 144.104C111.839 144.636 111.34 145.027 110.751 145.195C110.163 145.363 109.532 145.294 108.994 145.003L104.297 142.322V147.656C104.297 148.278 104.05 148.874 103.61 149.314C103.171 149.753 102.575 150 101.953 150C101.331 150 100.735 149.753 100.296 149.314C99.8562 148.874 99.6093 148.278 99.6093 147.656V142.313L94.9124 145.003C94.374 145.294 93.7432 145.363 93.1547 145.195C92.5662 145.027 92.0668 144.636 91.7631 144.104C91.4595 143.573 91.3758 142.944 91.5298 142.351C91.6838 141.759 92.0634 141.251 92.5874 140.935L97.2281 138.281L92.5874 135.628C92.0634 135.312 91.6838 134.804 91.5298 134.211C91.3758 133.619 91.4595 132.99 91.7631 132.459C92.0668 131.927 92.5662 131.536 93.1547 131.368C93.7432 131.2 94.374 131.269 94.9124 131.56L99.6093 134.241V128.906C99.6093 128.285 99.8562 127.689 100.296 127.249C100.735 126.81 101.331 126.563 101.953 126.563ZM76.1718 107.813C76.7934 107.813 77.3896 108.06 77.8291 108.499C78.2686 108.939 78.5156 109.535 78.5156 110.156V115.5L83.2124 112.81C83.7508 112.519 84.3817 112.45 84.9702 112.618C85.5587 112.786 86.0581 113.177 86.3617 113.709C86.6654 114.24 86.7491 114.869 86.5951 115.461C86.4411 116.054 86.0615 116.562 85.5374 116.878L80.8968 119.531L85.5374 122.185C86.0615 122.501 86.4411 123.009 86.5951 123.601C86.7491 124.194 86.6654 124.823 86.3617 125.354C86.0581 125.886 85.5587 126.277 84.9702 126.445C84.3817 126.613 83.7508 126.544 83.2124 126.253L78.5156 123.572V128.906C78.5156 129.528 78.2686 130.124 77.8291 130.564C77.3896 131.003 76.7934 131.25 76.1718 131.25C75.5502 131.25 74.9541 131.003 74.5145 130.564C74.075 130.124 73.8281 129.528 73.8281 128.906V123.563L69.1312 126.253C68.5928 126.544 67.9619 126.613 67.3735 126.445C66.785 126.277 66.2855 125.886 65.9819 125.354C65.6783 124.823 65.5945 124.194 65.7485 123.601C65.9026 123.009 66.2822 122.501 66.8062 122.185L71.4468 119.531L66.8062 116.878C66.2822 116.562 65.9026 116.054 65.7485 115.461C65.5945 114.869 65.6783 114.24 65.9819 113.709C66.2855 113.177 66.785 112.786 67.3735 112.618C67.9619 112.45 68.5928 112.519 69.1312 112.81L73.8281 115.491V110.156C73.8281 109.535 74.075 108.939 74.5145 108.499C74.9541 108.06 75.5502 107.813 76.1718 107.813ZM127.734 107.813C128.356 107.813 128.952 108.06 129.392 108.499C129.831 108.939 130.078 109.535 130.078 110.156V115.5L134.775 112.81C135.313 112.519 135.944 112.45 136.533 112.618C137.121 112.786 137.621 113.177 137.924 113.709C138.228 114.24 138.312 114.869 138.158 115.461C138.004 116.054 137.624 116.562 137.1 116.878L132.459 119.531L137.1 122.185C137.624 122.501 138.004 123.009 138.158 123.601C138.312 124.194 138.228 124.823 137.924 125.354C137.621 125.886 137.121 126.277 136.533 126.445C135.944 126.613 135.313 126.544 134.775 126.253L130.078 123.572V128.906C130.078 129.528 129.831 130.124 129.392 130.564C128.952 131.003 128.356 131.25 127.734 131.25C127.113 131.25 126.517 131.003 126.077 130.564C125.637 130.124 125.391 129.528 125.391 128.906V123.563L120.694 126.253C120.155 126.544 119.524 126.613 118.936 126.445C118.347 126.277 117.848 125.886 117.544 125.354C117.241 124.823 117.157 124.194 117.311 123.601C117.465 123.009 117.845 122.501 118.369 122.185L123.009 119.531L118.369 116.878C117.845 116.562 117.465 116.054 117.311 115.461C117.157 114.869 117.241 114.24 117.544 113.709C117.848 113.177 118.347 112.786 118.936 112.618C119.524 112.45 120.155 112.519 120.694 112.81L125.391 115.491V110.156C125.391 109.535 125.637 108.939 126.077 108.499C126.517 108.06 127.113 107.813 127.734 107.813Z" fill="white"/>
</g>
<defs>
<clipPath id="clip0_333_50">
<rect width="150" height="150" fill="white"/>
</clipPath>
</defs>
</svg>
