<svg width="150" height="150" viewBox="0 0 150 150" fill="none" xmlns="http://www.w3.org/2000/svg">
<g clip-path="url(#clip0_333_48)">
<path d="M75 103.125C67.5408 103.125 60.3871 100.162 55.1126 94.8874C49.8382 89.6129 46.875 82.4592 46.875 75C46.875 67.5408 49.8382 60.3871 55.1126 55.1126C60.3871 49.8382 67.5408 46.875 75 46.875C82.4592 46.875 89.6129 49.8382 94.8874 55.1126C100.162 60.3871 103.125 67.5408 103.125 75C103.125 82.4592 100.162 89.6129 94.8874 94.8874C89.6129 100.162 82.4592 103.125 75 103.125ZM75 112.5C84.9456 112.5 94.4839 108.549 101.517 101.517C108.549 94.4839 112.5 84.9456 112.5 75C112.5 65.0544 108.549 55.5161 101.517 48.4835C94.4839 41.4509 84.9456 37.5 75 37.5C65.0544 37.5 55.5161 41.4509 48.4835 48.4835C41.4509 55.5161 37.5 65.0544 37.5 75C37.5 84.9456 41.4509 94.4839 48.4835 101.517C55.5161 108.549 65.0544 112.5 75 112.5ZM75 0C76.2432 0 77.4355 0.49386 78.3146 1.37294C79.1936 2.25201 79.6875 3.4443 79.6875 4.6875V23.4375C79.6875 24.6807 79.1936 25.873 78.3146 26.7521C77.4355 27.6311 76.2432 28.125 75 28.125C73.7568 28.125 72.5645 27.6311 71.6854 26.7521C70.8064 25.873 70.3125 24.6807 70.3125 23.4375V4.6875C70.3125 3.4443 70.8064 2.25201 71.6854 1.37294C72.5645 0.49386 73.7568 0 75 0ZM75 121.875C76.2432 121.875 77.4355 122.369 78.3146 123.248C79.1936 124.127 79.6875 125.319 79.6875 126.562V145.312C79.6875 146.556 79.1936 147.748 78.3146 148.627C77.4355 149.506 76.2432 150 75 150C73.7568 150 72.5645 149.506 71.6854 148.627C70.8064 147.748 70.3125 146.556 70.3125 145.312V126.562C70.3125 125.319 70.8064 124.127 71.6854 123.248C72.5645 122.369 73.7568 121.875 75 121.875ZM150 75C150 76.2432 149.506 77.4355 148.627 78.3146C147.748 79.1936 146.556 79.6875 145.312 79.6875H126.562C125.319 79.6875 124.127 79.1936 123.248 78.3146C122.369 77.4355 121.875 76.2432 121.875 75C121.875 73.7568 122.369 72.5645 123.248 71.6854C124.127 70.8064 125.319 70.3125 126.562 70.3125H145.312C146.556 70.3125 147.748 70.8064 148.627 71.6854C149.506 72.5645 150 73.7568 150 75ZM28.125 75C28.125 76.2432 27.6311 77.4355 26.7521 78.3146C25.873 79.1936 24.6807 79.6875 23.4375 79.6875H4.6875C3.4443 79.6875 2.25201 79.1936 1.37294 78.3146C0.49386 77.4355 0 76.2432 0 75C0 73.7568 0.49386 72.5645 1.37294 71.6854C2.25201 70.8064 3.4443 70.3125 4.6875 70.3125H23.4375C24.6807 70.3125 25.873 70.8064 26.7521 71.6854C27.6311 72.5645 28.125 73.7568 28.125 75ZM128.034 21.9656C128.913 22.8447 129.407 24.0367 129.407 25.2797C129.407 26.5226 128.913 27.7147 128.034 28.5937L114.778 41.8594C114.342 42.2946 113.825 42.6397 113.256 42.875C112.687 43.1103 112.077 43.2312 111.461 43.2307C110.217 43.2299 109.024 42.7349 108.145 41.8547C107.71 41.4189 107.365 40.9016 107.13 40.3324C106.894 39.7632 106.774 39.1532 106.774 38.5373C106.775 37.2934 107.27 36.1008 108.15 35.2219L121.406 21.9656C122.285 21.0869 123.477 20.5932 124.72 20.5932C125.963 20.5932 127.155 21.0869 128.034 21.9656ZM41.85 108.15C42.7288 109.029 43.2224 110.221 43.2224 111.464C43.2224 112.707 42.7288 113.899 41.85 114.778L28.5937 128.034C27.7097 128.888 26.5256 129.361 25.2966 129.35C24.0675 129.339 22.8918 128.846 22.0227 127.977C21.1536 127.108 20.6606 125.932 20.65 124.703C20.6393 123.474 21.1118 122.29 21.9656 121.406L35.2219 108.15C36.1009 107.271 37.293 106.778 38.5359 106.778C39.7789 106.778 40.971 107.271 41.85 108.15ZM128.034 128.034C127.155 128.913 125.963 129.407 124.72 129.407C123.477 129.407 122.285 128.913 121.406 128.034L108.15 114.778C107.296 113.894 106.824 112.71 106.834 111.481C106.845 110.252 107.338 109.076 108.207 108.207C109.076 107.338 110.252 106.845 111.481 106.834C112.71 106.824 113.894 107.296 114.778 108.15L128.034 121.406C128.913 122.285 129.407 123.477 129.407 124.72C129.407 125.963 128.913 127.155 128.034 128.034ZM41.85 41.8594C40.971 42.7381 39.7789 43.2318 38.5359 43.2318C37.293 43.2318 36.1009 42.7381 35.2219 41.8594L21.9656 28.5937C21.5179 28.1613 21.1608 27.6441 20.9152 27.0722C20.6695 26.5003 20.5402 25.8852 20.5348 25.2628C20.5294 24.6404 20.648 24.0232 20.8836 23.4471C21.1193 22.871 21.4674 22.3476 21.9075 21.9075C22.3476 21.4674 22.871 21.1193 23.4471 20.8836C24.0232 20.648 24.6404 20.5294 25.2628 20.5348C25.8852 20.5402 26.5003 20.6695 27.0722 20.9152C27.6441 21.1608 28.1613 21.5179 28.5937 21.9656L41.85 35.2219C42.2865 35.6573 42.6329 36.1746 42.8692 36.7441C43.1055 37.3135 43.2271 37.9241 43.2271 38.5406C43.2271 39.1572 43.1055 39.7677 42.8692 40.3372C42.6329 40.9067 42.2865 41.4239 41.85 41.8594Z" fill="white"/>
</g>
<defs>
<clipPath id="clip0_333_48">
<rect width="150" height="150" fill="white"/>
</clipPath>
</defs>
</svg>
