<svg width="150" height="150" viewBox="0 0 150 150" fill="none" xmlns="http://www.w3.org/2000/svg">
<g clip-path="url(#clip0_333_41)">
<path d="M71.6813 10.7438C72.1168 10.3073 72.634 9.96096 73.2035 9.72465C73.773 9.48834 74.3835 9.3667 75.0001 9.3667C75.6167 9.3667 76.2272 9.48834 76.7967 9.72465C77.3661 9.96096 77.8834 10.3073 78.3189 10.7438L92.3814 24.8063C92.8172 25.2422 93.1629 25.7596 93.3988 26.329C93.6346 26.8984 93.756 27.5087 93.756 28.1251C93.756 28.7414 93.6346 29.3517 93.3988 29.9212C93.1629 30.4906 92.8172 31.008 92.3814 31.4438C91.9455 31.8797 91.4281 32.2254 90.8587 32.4612C90.2893 32.6971 89.679 32.8185 89.0626 32.8185C88.4463 32.8185 87.8359 32.6971 87.2665 32.4612C86.6971 32.2254 86.1797 31.8797 85.7439 31.4438L79.6876 25.3782V42.1876C79.6876 43.4308 79.1937 44.6231 78.3147 45.5021C77.4356 46.3812 76.2433 46.8751 75.0001 46.8751C73.7569 46.8751 72.5646 46.3812 71.6855 45.5021C70.8065 44.6231 70.3126 43.4308 70.3126 42.1876V25.3782L64.2563 31.4438C63.8205 31.8797 63.3031 32.2254 62.7337 32.4612C62.1643 32.6971 61.5539 32.8185 60.9376 32.8185C60.3212 32.8185 59.7109 32.6971 59.1415 32.4612C58.5721 32.2254 58.0547 31.8797 57.6188 31.4438C57.183 31.008 56.8373 30.4906 56.6014 29.9212C56.3656 29.3517 56.2442 28.7414 56.2442 28.1251C56.2442 27.5087 56.3656 26.8984 56.6014 26.329C56.8373 25.7596 57.183 25.2422 57.6188 24.8063L71.6813 10.7438ZM21.9657 40.7157C22.8448 39.8369 24.0368 39.3433 25.2798 39.3433C26.5227 39.3433 27.7148 39.8369 28.5938 40.7157L41.8501 53.972C42.704 54.856 43.1764 56.0401 43.1658 57.2691C43.1551 58.4982 42.6621 59.6739 41.793 60.543C40.9239 61.4121 39.7482 61.9051 38.5192 61.9157C37.2901 61.9264 36.106 61.4539 35.222 60.6001L21.9657 47.3438C21.087 46.4648 20.5933 45.2727 20.5933 44.0298C20.5933 42.7868 21.087 41.5947 21.9657 40.7157ZM128.034 40.7157C128.913 41.5947 129.407 42.7868 129.407 44.0298C129.407 45.2727 128.913 46.4648 128.034 47.3438L114.778 60.6001C114.346 61.0478 113.829 61.4049 113.257 61.6506C112.685 61.8962 112.07 62.0255 111.447 62.0309C110.825 62.0363 110.208 61.9177 109.632 61.6821C109.055 61.4464 108.532 61.0983 108.092 60.6582C107.652 60.2181 107.304 59.6947 107.068 59.1186C106.832 58.5425 106.714 57.9253 106.719 57.3029C106.725 56.6805 106.854 56.0654 107.1 55.4935C107.345 54.9216 107.702 54.4044 108.15 53.972L121.406 40.7157C122.285 39.8369 123.477 39.3433 124.72 39.3433C125.963 39.3433 127.155 39.8369 128.034 40.7157ZM75.0001 65.6251C79.9378 65.6236 84.7889 66.922 89.0656 69.3899C93.3424 71.8577 96.8941 75.408 99.3636 79.6838C101.833 83.9596 103.133 88.8102 103.134 93.7479C103.134 98.6856 101.835 103.536 99.3657 107.813H50.6251C48.1558 103.536 46.8563 98.6841 46.8571 93.7456C46.8579 88.8071 48.159 83.9558 50.6296 79.6798C53.1002 75.4037 56.6532 71.8535 60.9313 69.3863C65.2093 66.9192 70.0616 65.6219 75.0001 65.6251ZM109.781 107.813C112.08 102.12 112.946 95.9512 112.304 89.8462C111.661 83.7413 109.53 77.8874 106.097 72.7985C102.663 67.7096 98.0335 63.5414 92.6132 60.6597C87.193 57.778 81.1481 56.271 75.0095 56.271C68.8708 56.271 62.826 57.778 57.4057 60.6597C51.9855 63.5414 47.3556 67.7096 43.9224 72.7985C40.4893 77.8874 38.3579 83.7413 37.7154 89.8462C37.0729 95.9512 37.939 102.12 40.2376 107.813H4.67822C3.43502 107.813 2.24274 108.306 1.36366 109.186C0.484583 110.065 -0.00927734 111.257 -0.00927734 112.5C-0.00927734 113.743 0.484583 114.936 1.36366 115.815C2.24274 116.694 3.43502 117.188 4.67822 117.188H145.303C146.546 117.188 147.739 116.694 148.618 115.815C149.497 114.936 149.991 113.743 149.991 112.5C149.991 111.257 149.497 110.065 148.618 109.186C147.739 108.306 146.546 107.813 145.303 107.813H109.772H109.781ZM9.76567e-05 93.7501C9.76567e-05 92.5069 0.493958 91.3146 1.37303 90.4355C2.25211 89.5564 3.4444 89.0626 4.6876 89.0626H23.4376C24.6808 89.0626 25.8731 89.5564 26.7522 90.4355C27.6312 91.3146 28.1251 92.5069 28.1251 93.7501C28.1251 94.9933 27.6312 96.1856 26.7522 97.0646C25.8731 97.9437 24.6808 98.4376 23.4376 98.4376H4.6876C3.4444 98.4376 2.25211 97.9437 1.37303 97.0646C0.493958 96.1856 9.76567e-05 94.9933 9.76567e-05 93.7501ZM121.875 93.7501C121.875 92.5069 122.369 91.3146 123.248 90.4355C124.127 89.5564 125.319 89.0626 126.563 89.0626H145.313C146.556 89.0626 147.748 89.5564 148.627 90.4355C149.506 91.3146 150 92.5069 150 93.7501C150 94.9933 149.506 96.1856 148.627 97.0646C147.748 97.9437 146.556 98.4376 145.313 98.4376H126.563C125.319 98.4376 124.127 97.9437 123.248 97.0646C122.369 96.1856 121.875 94.9933 121.875 93.7501Z" fill="white"/>
</g>
<defs>
<clipPath id="clip0_333_41">
<rect width="150" height="150" fill="white"/>
</clipPath>
</defs>
</svg>
