<svg width="150" height="150" viewBox="0 0 150 150" fill="none" xmlns="http://www.w3.org/2000/svg">
<g clip-path="url(#clip0_333_39)">
<path d="M71.6813 45.5063C72.1168 45.9428 72.634 46.2891 73.2035 46.5254C73.773 46.7617 74.3835 46.8834 75.0001 46.8834C75.6167 46.8834 76.2272 46.7617 76.7967 46.5254C77.3661 46.2891 77.8834 45.9428 78.3189 45.5063L92.3814 31.4438C92.8172 31.0079 93.1629 30.4905 93.3988 29.9211C93.6346 29.3517 93.756 28.7413 93.756 28.125C93.756 27.5087 93.6346 26.8983 93.3988 26.3289C93.1629 25.7595 92.8172 25.2421 92.3814 24.8062C91.9455 24.3704 91.4281 24.0247 90.8587 23.7888C90.2893 23.553 89.679 23.4316 89.0626 23.4316C88.4463 23.4316 87.8359 23.553 87.2665 23.7888C86.6971 24.0247 86.1797 24.3704 85.7439 24.8062L79.6876 30.8719V14.0625C79.6876 12.8193 79.1937 11.627 78.3147 10.7479C77.4356 9.86886 76.2433 9.375 75.0001 9.375C73.7569 9.375 72.5646 9.86886 71.6855 10.7479C70.8065 11.627 70.3126 12.8193 70.3126 14.0625V30.8719L64.2563 24.8062C63.8205 24.3704 63.3031 24.0247 62.7337 23.7888C62.1643 23.553 61.5539 23.4316 60.9376 23.4316C60.3212 23.4316 59.7109 23.553 59.1415 23.7888C58.5721 24.0247 58.0547 24.3704 57.6188 24.8062C57.183 25.2421 56.8373 25.7595 56.6014 26.3289C56.3656 26.8983 56.2442 27.5087 56.2442 28.125C56.2442 28.7413 56.3656 29.3517 56.6014 29.9211C56.8373 30.4905 57.183 31.0079 57.6188 31.4438L71.6813 45.5063ZM21.9657 40.725C22.8448 39.8462 24.0368 39.3526 25.2798 39.3526C26.5227 39.3526 27.7148 39.8462 28.5938 40.725L41.8501 53.9719C42.704 54.8559 43.1764 56.04 43.1658 57.2691C43.1551 58.4981 42.6621 59.6738 41.793 60.5429C40.9239 61.412 39.7482 61.905 38.5192 61.9157C37.2901 61.9263 36.106 61.4539 35.222 60.6L21.9657 47.3438C21.087 46.4647 20.5933 45.2726 20.5933 44.0297C20.5933 42.7867 21.087 41.604 21.9657 40.725ZM128.034 40.725C128.91 41.6037 129.402 42.7937 129.402 44.0344C129.402 45.275 128.91 46.4651 128.034 47.3438L114.778 60.6C114.346 61.0477 113.829 61.4048 113.257 61.6505C112.685 61.8961 112.07 62.0255 111.447 62.0309C110.825 62.0363 110.208 61.9177 109.632 61.682C109.055 61.4463 108.532 61.0982 108.092 60.6581C107.652 60.218 107.304 59.6946 107.068 59.1185C106.832 58.5425 106.714 57.9252 106.719 57.3028C106.725 56.6804 106.854 56.0653 107.1 55.4934C107.345 54.9215 107.702 54.4043 108.15 53.9719L121.406 40.7156C122.285 39.8369 123.477 39.3432 124.72 39.3432C125.963 39.3432 127.155 39.8462 128.034 40.725ZM75.0001 65.625C79.9378 65.6235 84.7889 66.9219 89.0656 69.3898C93.3424 71.8577 96.8941 75.4079 99.3636 79.6837C101.833 83.9595 103.133 88.8101 103.134 93.7478C103.134 98.6855 101.835 103.536 99.3657 107.812H50.6251C48.1558 103.536 46.8563 98.684 46.8571 93.7455C46.8579 88.807 48.159 83.9558 50.6296 79.6797C53.1002 75.4036 56.6532 71.8535 60.9313 69.3863C65.2093 66.9191 70.0616 65.6218 75.0001 65.625ZM109.781 107.812C112.08 102.12 112.946 95.9511 112.304 89.8461C111.661 83.7412 109.53 77.8873 106.097 72.7984C102.663 67.7095 98.0335 63.5413 92.6132 60.6596C87.193 57.7779 81.1481 56.2709 75.0095 56.2709C68.8708 56.2709 62.826 57.7779 57.4057 60.6596C51.9855 63.5413 47.3556 67.7095 43.9224 72.7984C40.4893 77.8873 38.3579 83.7412 37.7154 89.8461C37.0729 95.9511 37.939 102.12 40.2376 107.812H4.67822C3.43502 107.812 2.24274 108.306 1.36366 109.185C0.484583 110.065 -0.00927734 111.257 -0.00927734 112.5C-0.00927734 113.743 0.484583 114.935 1.36366 115.815C2.24274 116.694 3.43502 117.188 4.67822 117.188H145.303C146.546 117.188 147.739 116.694 148.618 115.815C149.497 114.935 149.991 113.743 149.991 112.5C149.991 111.257 149.497 110.065 148.618 109.185C147.739 108.306 146.546 107.812 145.303 107.812H109.772H109.781ZM9.76567e-05 93.75C9.76567e-05 92.5068 0.493958 91.3145 1.37303 90.4354C2.25211 89.5564 3.4444 89.0625 4.6876 89.0625H23.4376C24.6808 89.0625 25.8731 89.5564 26.7522 90.4354C27.6312 91.3145 28.1251 92.5068 28.1251 93.75C28.1251 94.9932 27.6312 96.1855 26.7522 97.0646C25.8731 97.9436 24.6808 98.4375 23.4376 98.4375H4.6876C3.4444 98.4375 2.25211 97.9436 1.37303 97.0646C0.493958 96.1855 9.76567e-05 94.9932 9.76567e-05 93.75ZM121.875 93.75C121.875 92.5068 122.369 91.3145 123.248 90.4354C124.127 89.5564 125.319 89.0625 126.563 89.0625H145.313C146.556 89.0625 147.748 89.5564 148.627 90.4354C149.506 91.3145 150 92.5068 150 93.75C150 94.9932 149.506 96.1855 148.627 97.0646C147.748 97.9436 146.556 98.4375 145.313 98.4375H126.563C125.319 98.4375 124.127 97.9436 123.248 97.0646C122.369 96.1855 121.875 94.9932 121.875 93.75Z" fill="white"/>
</g>
<defs>
<clipPath id="clip0_333_39">
<rect width="150" height="150" fill="white"/>
</clipPath>
</defs>
</svg>
