<svg width="150" height="150" viewBox="0 0 150 150" fill="none" xmlns="http://www.w3.org/2000/svg">
<g clip-path="url(#clip0_333_35)">
<path d="M24.9187 103.369C26.0967 103.762 27.0703 104.608 27.6258 105.718C28.1813 106.829 28.2731 108.115 27.8812 109.294L23.1937 123.356C23.0171 123.962 22.7203 124.525 22.3209 125.013C21.9215 125.501 21.4277 125.903 20.8692 126.196C20.3107 126.489 19.6988 126.666 19.0703 126.716C18.4418 126.767 17.8096 126.69 17.2114 126.491C16.6132 126.291 16.0614 125.973 15.589 125.556C15.1166 125.138 14.7333 124.629 14.462 124.06C14.1908 123.491 14.0372 122.873 14.0104 122.243C13.9836 121.613 14.0842 120.984 14.3062 120.394L18.9937 106.331C19.3873 105.153 20.2324 104.18 21.3433 103.624C22.4542 103.069 23.7401 102.977 24.9187 103.369ZM113.981 103.369C115.159 103.762 116.133 104.608 116.688 105.718C117.244 106.829 117.336 108.115 116.944 109.294L112.256 123.356C112.08 123.962 111.783 124.525 111.383 125.013C110.984 125.501 110.49 125.903 109.932 126.196C109.373 126.489 108.761 126.666 108.133 126.716C107.504 126.767 106.872 126.69 106.274 126.491C105.676 126.291 105.124 125.973 104.651 125.556C104.179 125.138 103.796 124.629 103.525 124.06C103.253 123.491 103.1 122.873 103.073 122.243C103.046 121.613 103.147 120.984 103.369 120.394L108.056 106.331C108.45 105.153 109.295 104.18 110.406 103.624C111.517 103.069 112.803 102.977 113.981 103.369ZM43.6687 117.431C44.8467 117.825 45.8203 118.67 46.3758 119.781C46.9313 120.892 47.0231 122.178 46.6312 123.356L41.9437 137.419C41.7671 138.024 41.4703 138.588 41.0709 139.076C40.6715 139.564 40.1777 139.966 39.6192 140.258C39.0607 140.551 38.4488 140.728 37.8203 140.779C37.1918 140.829 36.5596 140.753 35.9614 140.553C35.3632 140.354 34.8114 140.036 34.339 139.618C33.8666 139.201 33.4833 138.692 33.212 138.123C32.9408 137.554 32.7872 136.935 32.7604 136.305C32.7336 135.675 32.8342 135.047 33.0562 134.456L37.7437 120.394C38.1373 119.216 38.9824 118.242 40.0933 117.687C41.2042 117.131 42.4901 117.039 43.6687 117.431ZM132.731 117.431C133.909 117.825 134.883 118.67 135.438 119.781C135.994 120.892 136.086 122.178 135.694 123.356L131.006 137.419C130.83 138.024 130.533 138.588 130.133 139.076C129.734 139.564 129.24 139.966 128.682 140.258C128.123 140.551 127.511 140.728 126.883 140.779C126.254 140.829 125.622 140.753 125.024 140.553C124.426 140.354 123.874 140.036 123.401 139.618C122.929 139.201 122.546 138.692 122.275 138.123C122.003 137.554 121.85 136.935 121.823 136.305C121.796 135.675 121.897 135.047 122.119 134.456L126.806 120.394C127.2 119.216 128.045 118.242 129.156 117.687C130.267 117.131 131.553 117.039 132.731 117.431ZM125.672 37.7533C123.725 27.9391 118.69 19.0052 111.302 12.2577C103.914 5.51026 94.5615 1.30312 84.6116 0.251461C74.6617 -0.8002 64.6362 1.35878 56.0011 6.41272C47.3661 11.4667 40.5742 19.1505 36.6187 28.3408C32.1828 27.8297 27.6893 28.2295 23.4132 29.5155C19.1372 30.8015 15.1687 32.9468 11.7505 35.8199C8.33243 38.693 5.5367 42.2336 3.53452 46.2248C1.53234 50.216 0.365841 54.5738 0.106442 59.0315C-0.152957 63.4892 0.500205 67.9529 2.02594 72.1494C3.55167 76.3459 5.91786 80.1868 8.97964 83.437C12.0414 86.6872 15.7344 89.2783 19.8324 91.0516C23.9304 92.8249 28.3472 93.7432 32.8124 93.7501H121.875C129.01 93.7583 135.882 91.054 141.098 86.1852C146.314 81.3163 149.485 74.6469 149.968 67.5278C150.45 60.4087 148.209 53.3723 143.698 47.8439C139.187 42.3155 132.743 38.7084 125.672 37.7533ZM79.6874 9.37513C88.912 9.37322 97.8137 12.7714 104.69 18.9199C111.567 25.0685 115.936 33.5359 116.962 42.7033C117.09 43.8551 117.639 44.9188 118.505 45.6893C119.371 46.4597 120.491 46.8822 121.65 46.8751H121.875C126.848 46.8751 131.617 48.8506 135.133 52.3669C138.649 55.8832 140.625 60.6523 140.625 65.6251C140.625 70.5979 138.649 75.3671 135.133 78.8834C131.617 82.3997 126.848 84.3751 121.875 84.3751H32.8124C29.4944 84.3735 26.2145 83.6673 23.1897 82.3034C20.165 80.9394 17.4643 78.9488 15.2663 76.4631C13.0684 73.9775 11.4233 71.0535 10.4398 67.8845C9.45632 64.7155 9.15692 61.3739 9.56139 58.0806C9.96587 54.7872 11.065 51.6173 12.7861 48.7806C14.5072 45.9438 16.811 43.5047 19.5451 41.6248C22.2792 39.7449 25.3813 38.467 28.6463 37.8755C31.9112 37.284 35.2645 37.3926 38.4843 38.1939C39.633 38.4804 40.8476 38.3216 41.8841 37.7495C42.9205 37.1773 43.7021 36.2342 44.0718 35.1095C46.547 27.619 51.3213 21.0998 57.7157 16.4795C64.11 11.8592 71.7986 9.3732 79.6874 9.37513ZM66.1218 105.713C66.5115 104.935 67.1098 104.281 67.8499 103.824C68.59 103.367 69.4426 103.125 70.3124 103.125H79.6874C80.4298 103.126 81.1614 103.303 81.822 103.641C82.4826 103.98 83.0534 104.47 83.4873 105.073C83.9212 105.675 84.2058 106.372 84.3178 107.106C84.4297 107.84 84.3658 108.59 84.1312 109.294L81.5062 117.188H89.0624C89.9445 117.189 90.8083 117.439 91.5545 117.909C92.3008 118.379 92.8993 119.051 93.2812 119.846C93.663 120.641 93.8128 121.527 93.7133 122.404C93.6138 123.28 93.2691 124.111 92.7187 124.8L73.9687 148.238C73.2997 149.069 72.3672 149.647 71.3253 149.876C70.2835 150.105 69.1945 149.973 68.2383 149.499C67.2821 149.026 66.5159 148.241 66.0664 147.274C65.6168 146.306 65.5107 145.214 65.7656 144.178L68.9999 131.25H60.9374C60.1381 131.25 59.352 131.046 58.6539 130.656C57.9559 130.267 57.369 129.705 56.9491 129.025C56.5291 128.345 56.2901 127.569 56.2547 126.77C56.2193 125.972 56.3887 125.177 56.7468 124.463L66.1218 105.713Z" fill="white"/>
</g>
<defs>
<clipPath id="clip0_333_35">
<rect width="150" height="150" fill="white"/>
</clipPath>
</defs>
</svg>
