<svg width="150" height="150" viewBox="0 0 150 150" fill="none" xmlns="http://www.w3.org/2000/svg">
<g clip-path="url(#clip0_333_37)">
<path d="M117.188 18.75C110.971 18.75 105.01 21.2193 100.615 25.6147C96.2193 30.0101 93.75 35.9715 93.75 42.1875C93.75 43.4307 93.2561 44.623 92.3771 45.5021C91.498 46.3812 90.3057 46.875 89.0625 46.875C87.8193 46.875 86.627 46.3812 85.7479 45.5021C84.8689 44.623 84.375 43.4307 84.375 42.1875C84.375 35.6978 86.2994 29.3539 89.9049 23.9579C93.5104 18.5619 98.635 14.3562 104.631 11.8727C110.626 9.38922 117.224 8.73942 123.589 10.0055C129.954 11.2716 135.801 14.3967 140.389 18.9856C144.978 23.5745 148.103 29.4211 149.37 35.7861C150.636 42.1511 149.986 48.7486 147.502 54.7443C145.019 60.74 140.813 65.8646 135.417 69.4701C130.021 73.0756 123.677 75 117.188 75H4.6875C3.4443 75 2.25201 74.5062 1.37294 73.6271C0.49386 72.748 0 71.5557 0 70.3125C0 69.0693 0.49386 67.877 1.37294 66.998C2.25201 66.1189 3.4443 65.625 4.6875 65.625H117.188C123.404 65.625 129.365 63.1557 133.76 58.7603C138.156 54.3649 140.625 48.4035 140.625 42.1875C140.625 35.9715 138.156 30.0101 133.76 25.6147C129.365 21.2193 123.404 18.75 117.188 18.75ZM51.5625 28.125C49.0761 28.125 46.6915 29.1127 44.9334 30.8709C43.1752 32.629 42.1875 35.0136 42.1875 37.5C42.1875 38.7432 41.6936 39.9355 40.8146 40.8146C39.9355 41.6937 38.7432 42.1875 37.5 42.1875C36.2568 42.1875 35.0645 41.6937 34.1854 40.8146C33.3064 39.9355 32.8125 38.7432 32.8125 37.5C32.8125 33.7916 33.9122 30.1665 35.9724 27.0831C38.0327 23.9997 40.9611 21.5964 44.3872 20.1773C47.8133 18.7581 51.5833 18.3868 55.2204 19.1103C58.8576 19.8338 62.1985 21.6195 64.8208 24.2418C67.443 26.864 69.2288 30.2049 69.9522 33.8421C70.6757 37.4792 70.3044 41.2492 68.8852 44.6753C67.4661 48.1014 65.0629 51.0298 61.9794 53.0901C58.896 55.1503 55.2709 56.25 51.5625 56.25H4.6875C3.4443 56.25 2.25201 55.7562 1.37294 54.8771C0.49386 53.998 0 52.8057 0 51.5625C0 50.3193 0.49386 49.127 1.37294 48.248C2.25201 47.3689 3.4443 46.875 4.6875 46.875H51.5625C54.0489 46.875 56.4335 45.8873 58.1916 44.1291C59.9498 42.371 60.9375 39.9864 60.9375 37.5C60.9375 35.0136 59.9498 32.629 58.1916 30.8709C56.4335 29.1127 54.0489 28.125 51.5625 28.125ZM0 89.0625C0 87.8193 0.49386 86.627 1.37294 85.748C2.25201 84.8689 3.4443 84.375 4.6875 84.375H98.8312C104.394 84.375 109.832 86.0245 114.457 89.1149C119.082 92.2054 122.687 96.5979 124.815 101.737C126.944 106.876 127.501 112.531 126.416 117.987C125.331 123.443 122.652 128.454 118.719 132.387C114.785 136.321 109.774 138.999 104.318 140.085C98.8624 141.17 93.2074 140.613 88.0683 138.484C82.9291 136.355 78.5366 132.751 75.4462 128.125C72.3558 123.5 70.7062 118.063 70.7062 112.5C70.7062 111.257 71.2001 110.065 72.0792 109.185C72.9583 108.306 74.1505 107.813 75.3937 107.813C76.637 107.813 77.8292 108.306 78.7083 109.185C79.5874 110.065 80.0812 111.257 80.0812 112.5C80.0812 116.208 81.1809 119.834 83.2412 122.917C85.3015 126 88.2298 128.404 91.6559 129.823C95.0821 131.242 98.852 131.613 102.489 130.89C106.126 130.166 109.467 128.381 112.09 125.758C114.712 123.136 116.498 119.795 117.221 116.158C117.944 112.521 117.573 108.751 116.154 105.325C114.735 101.899 112.332 98.9702 109.248 96.91C106.165 94.8497 102.54 93.75 98.8312 93.75H4.6875C3.4443 93.75 2.25201 93.2562 1.37294 92.3771C0.49386 91.498 0 90.3057 0 89.0625Z" fill="white"/>
</g>
<defs>
<clipPath id="clip0_333_37">
<rect width="150" height="150" fill="white"/>
</clipPath>
</defs>
</svg>
